<svg id="visual" viewBox="0 0 900 600" width="900" height="600" xmlns="http://www.w3.org/2000/svg" xmlns:xlink="http://www.w3.org/1999/xlink" version="1.1"><rect x="0" y="0" width="900" height="600" fill="#f4e9d8"></rect><path d="M0 97L21.5 95.8C43 94.7 86 92.3 128.8 98.7C171.7 105 214.3 120 257.2 122C300 124 343 113 385.8 102.8C428.7 92.7 471.3 83.3 514.2 88C557 92.7 600 111.3 642.8 126.7C685.7 142 728.3 154 771.2 150.5C814 147 857 128 878.5 118.5L900 109L900 0L878.5 0C857 0 814 0 771.2 0C728.3 0 685.7 0 642.8 0C600 0 557 0 514.2 0C471.3 0 428.7 0 385.8 0C343 0 300 0 257.2 0C214.3 0 171.7 0 128.8 0C86 0 43 0 21.5 0L0 0Z" fill="#483923" stroke-linecap="round" stroke-linejoin="miter"></path></svg>